<svg xmlns="http://www.w3.org/2000/svg" version="1.1" viewBox="0 0 24 24">
  <g fill="none" fill-rule="evenodd" stroke="none" stroke-width="1">
    <path d="M0 0h24v24H0z"/>
    <path fill="#000" d="M19.894 22.348H4.106a1 1 0 01-.995-1.1L4.338 9.06a1 1 0 01.995-.9h2.381V5.297A4.291 4.291 0 0112 1a4.291 4.291 0 014.286 4.297V8.16h2.381a1 1 0 01.995.9l1.227 12.187a1 1 0 01-.995 1.1zM9.144 5.297v6.446a.714.714 0 01-1.43 0v-2.15h-1.97l-1.19 11.323h14.893l-1.19-11.322h-1.97v2.15a.714.714 0 01-1.43 0V5.297A2.864 2.864 0 0012 2.433a2.864 2.864 0 00-2.857 2.864zm2.144 2.864h1.425a.716.716 0 010 1.432h-1.425a.716.716 0 110-1.432z"/>
  </g>
</svg>