<svg xmlns="http://www.w3.org/2000/svg" width="22" height="22" version="1.1" viewBox="0 0 22 22">
  <path fill="#000" fill-rule="nonzero" stroke="none" stroke-width="1" d="M21.386 18.423a2.094 2.094 0 11-2.963 2.963L14.1 17.063c-.307-.307-.862-.385-1.248-.178 0 0 .053-.013-.285.139a8.863 8.863 0 01-3.662.786A8.904 8.904 0 010 8.905 8.904 8.904 0 018.905 0a8.904 8.904 0 018.904 8.905c0 1.31-.282 2.553-.79 3.673-.15.333-.136.276-.136.276-.207.38-.127.939.18 1.246l4.323 4.323zM8.905 13.881a4.977 4.977 0 10-.001-9.953 4.977 4.977 0 000 9.953z"/>
</svg>