<?xml version="1.0" standalone="no"?>
<!DOCTYPE svg PUBLIC "-//W3C//DTD SVG 1.1//EN" "http://www.w3.org/Graphics/SVG/1.1/DTD/svg11.dtd" >
<svg xmlns="http://www.w3.org/2000/svg">
<metadata></metadata>
<defs>
<font id="zwolightplainalt20mlregular" horiz-adv-x="1179" >
<font-face units-per-em="2048" ascent="1638" descent="-410" />
<missing-glyph horiz-adv-x="491" />
<glyph horiz-adv-x="2048" />
<glyph horiz-adv-x="2048" />
<glyph unicode="&#xd;" horiz-adv-x="491" />
<glyph unicode=" "  horiz-adv-x="491" />
<glyph unicode="&#x09;" horiz-adv-x="491" />
<glyph unicode="&#xa0;" horiz-adv-x="491" />
<glyph unicode="!" horiz-adv-x="448" d="M121 82q0 43 29.5 72.5t74.5 29.5t74 -29.5t29 -72.5q0 -45 -29 -73.5t-74 -28.5t-74.5 28.5t-29.5 73.5zM156 1366h139l-8 -897h-123z" />
<glyph unicode="&#x22;" horiz-adv-x="776" d="M102 1366h148l-19 -625h-108zM526 1366h148l-21 -625h-108z" />
<glyph unicode="#" horiz-adv-x="1484" d="M188 369v110h275l37 352h-262v111h274l39 369h113l-39 -369h356l39 369h113l-39 -369h262v-111h-275l-37 -352h263v-110h-275l-39 -369h-112l39 369h-357l-39 -369h-112l39 369h-263zM575 479h357l37 352h-357z" />
<glyph unicode="$" d="M225 35l8 133q131 -66 271 -66q119 0 197.5 73t78.5 177q0 166 -219 275l-41 20q-135 68 -196 137q-88 98 -88 254q0 137 83 232q78 88 211 112v172h101v-165q141 -2 233 -46l-8 -133q-102 53 -235 54q-104 0 -172 -52q-80 -61 -80 -174q0 -168 215 -264l41 -18 q290 -132 290 -404q0 -131 -78.5 -228t-205.5 -132v-180h-101v165h-18q-174 0 -287 58z" />
<glyph unicode="%" horiz-adv-x="1597" d="M102 973q0 162 70 256q78 106 229 106q295 0 295 -362q0 -162 -69 -256q-76 -106 -230 -107q-152 0 -227 107q-68 94 -68 256zM223 938q0 -92 43 -154q47 -70 133 -69q179 0 179 221v72q0 92 -43 153q-47 70 -134 70q-178 0 -178 -221v-72zM358 0l740 1311h139 l-739 -1311h-140zM899 338q0 162 70 256q76 106 229 106q295 0 295 -360q0 -164 -70 -258q-76 -104 -229 -105q-295 0 -295 361zM1018 303q0 -92 43 -153q49 -70 135 -70q178 0 178 221v72q0 92 -43 153q-49 70 -135 70q-178 0 -178 -221v-72z" />
<glyph unicode="&#x26;" horiz-adv-x="1171" d="M104 328q0 129 89 237q61 72 192 162q-143 180 -143 303q0 133 86 218t223 85t216 -73.5t79 -204.5q0 -104 -92 -197q-45 -43 -203 -149l315 -408q90 111 144 244l67 -117q-14 -35 -33 -70q-43 -82 -102 -151l168 -207h-156l-98 121q-172 -145 -383 -146 q-166 0 -267.5 92.5t-101.5 260.5zM231 328q0 -109 74 -175.5t182 -66.5q154 0 295 127l-329 428q-221 -158 -222 -313zM371 1032q0 -94 114 -239q129 84 166 116q72 66 72 138q0 82 -46 130t-126 48q-86 0 -133 -53.5t-47 -139.5z" />
<glyph unicode="'" horiz-adv-x="352" d="M102 1366h148l-19 -625h-108z" />
<glyph unicode="(" horiz-adv-x="792" d="M205 627q0 518 327 901h138q-324 -379 -324 -860v-80q0 -483 324 -860h-138q-328 385 -327 899z" />
<glyph unicode=")" horiz-adv-x="792" d="M123 -272q324 379 323 860v80q0 483 -323 860h137q328 -385 328 -899q0 -518 -328 -901h-137z" />
<glyph unicode="*" horiz-adv-x="935" d="M115 1079l26 86l267 -73l16 274h88l12 -274l267 71l28 -86l-258 -100l148 -229l-70 -56l-174 213l-170 -211l-74 54l152 229z" />
<glyph unicode="+" horiz-adv-x="1245" d="M131 602v109h434v477h115v-477h434v-109h-434v-477h-115v477h-434z" />
<glyph unicode="," horiz-adv-x="403" d="M23 -256l122 471h148l-162 -471h-108z" />
<glyph unicode="-" horiz-adv-x="731" d="M102 518v113h527v-113h-527z" />
<glyph unicode="." horiz-adv-x="452" d="M137 86q0 47 33 79t78 32t76.5 -33t31.5 -78t-31.5 -77t-76.5 -32t-78 32t-33 77z" />
<glyph unicode="/" horiz-adv-x="894" d="M129 -229l582 1702h120l-579 -1702h-123z" />
<glyph unicode="0" d="M145 682q0 707 447 707q442 0 442 -705q0 -707 -448 -707q-440 0 -441 705zM283 637q0 -240 67 -379q80 -162 238 -162q309 0 309 535v100q0 240 -68 379q-80 160 -239 160q-307 0 -307 -535v-98z" />
<glyph unicode="1" d="M195 0v115l350 2v1110q-76 -35 -338 -133l-8 116q201 68 364 156h113v-1249l330 -2v-115h-811z" />
<glyph unicode="2" d="M188 0v59q0 178 88 316q72 113 222 223l39 29q158 117 215 190q63 86 63 199q0 115 -73.5 184.5t-204.5 69.5q-166 0 -312 -115l-8 129q139 104 336 105q199 0 305 -111q92 -98 92 -248q0 -145 -84 -264q-78 -109 -252 -236l-36 -26q-254 -184 -254 -387l622 -2v-115 h-758z" />
<glyph unicode="3" d="M186 41l9 131q152 -76 313 -76q145 0 236.5 80t91.5 215q0 287 -349 287h-143l408 571l-555 2v115h778l-416 -580h16q131 0 244 -75q154 -104 154 -305q0 -188 -126 -308.5t-329 -120.5q-201 0 -332 64z" />
<glyph unicode="4" d="M109 362v138l391 866h141l-403 -889q225 2 477 2l8 312h123v-312h239v-117h-239v-362h-131v362h-606z" />
<glyph unicode="5" d="M213 39l8 129q143 -72 289 -72q156 0 247 89t91 237q0 145 -107 223q-92 70 -239 70h-281l8 651h717v-115l-588 -2l-6 -418h187q184 0 307 -94q139 -110 139 -311q0 -193 -132 -321t-337 -128q-174 0 -303 62z" />
<glyph unicode="6" d="M166 610q0 395 149 596q137 182 390 183q147 0 253 -50l-8 -122q-121 53 -256 53q-178 0 -284 -150q-113 -160 -113 -446v-10h2q123 166 344 165q197 0 301 -127q90 -112 90 -282q0 -190 -102 -309q-117 -133 -326 -134q-217 0 -328.5 164t-111.5 469zM307 457 q0 -143 72 -244q82 -117 225 -117t221 90q72 85 72 226q0 131 -74.5 215t-204.5 84q-133 0 -222 -75t-89 -179z" />
<glyph unicode="7" d="M160 1253v113h880l-561 -1366h-143l520 1249z" />
<glyph unicode="8" d="M164 334q0 127 72 217q51 63 135 104q39 14 78 29v2q-35 18 -72 35q-76 45 -121 110q-66 90 -66 209q0 168 125 263q113 86 287 86t280.5 -92.5t106.5 -245.5q0 -164 -125 -271q-37 -33 -131 -80v-2l78 -32q82 -43 133 -107q72 -88 72 -203q0 -186 -118 -282.5 t-320 -96.5q-184 0 -295 86q-119 94 -119 271zM299 346q0 -123 78 -187.5t207 -64.5q131 0 209 62q86 65 86 192q0 98 -78 172q-55 53 -146 88q-39 14 -80 27q-37 -12 -73 -25q-82 -33 -131 -86q-72 -76 -72 -178zM328 1038q0 -199 274 -290q33 14 68 26q74 39 121 92 q65 74 65 170q0 236 -262 236q-125 0 -195.5 -60.5t-70.5 -173.5z" />
<glyph unicode="9" d="M145 946q0 190 105 311q113 131 323 132q215 0 328 -164t113 -469q0 -397 -150 -594q-139 -184 -391 -185q-147 0 -252 50l6 125q121 -55 258 -56q176 0 283 150q115 160 115 446v10h-2q-125 -164 -344 -163q-197 0 -301 127q-90 111 -91 280zM283 956q0 -133 73.5 -217 t202.5 -84q135 0 224 76t89 180q0 141 -71 244q-84 117 -228 117q-143 0 -219 -90q-72 -82 -71 -226z" />
<glyph unicode=":" horiz-adv-x="452" d="M137 86q0 47 33 79t78 32t76.5 -33t31.5 -78t-31.5 -77t-76.5 -32t-78 32t-33 77zM137 938q0 45 33 77t78 32t76.5 -32t31.5 -77t-31.5 -78t-76.5 -33t-78 33t-33 78z" />
<glyph unicode=";" horiz-adv-x="425" d="M47 -256l123 471h147l-161 -471h-109zM139 938q0 45 32 77t77 32t77.5 -32t32.5 -77t-31.5 -78t-78.5 -33q-45 0 -77 33t-32 78z" />
<glyph unicode="&#x3c;" horiz-adv-x="1245" d="M98 655l1016 555v-123l-792 -432l792 -432v-123z" />
<glyph unicode="=" horiz-adv-x="1245" d="M131 369v108h983v-108h-983zM131 838v108h983v-108h-983z" />
<glyph unicode="&#x3e;" horiz-adv-x="1245" d="M131 100v123l793 434l-793 430v123l1016 -555z" />
<glyph unicode="?" horiz-adv-x="886" d="M154 1325q100 63 262 64q145 0 239 -76q105 -83 105 -228t-158 -303l-24 -24q-72 -72 -95.5 -131.5t-21.5 -157.5h-129q-12 207 129 348l24 25q133 133 133 235q0 86 -57 135.5t-151 49.5q-143 0 -248 -70zM289 82q0 43 28.5 72.5t73.5 29.5t74 -29.5t29 -72.5 q0 -45 -29 -73.5t-74 -28.5t-73.5 28.5t-28.5 73.5z" />
<glyph unicode="@" horiz-adv-x="1556" d="M168 461q0 217 78 346q92 152 278 151q164 0 252 -147h2l8 125h119q-4 -109 -4 -268v-330q0 -244 154 -244q111 0 159 96q61 123 62 447v106q0 297 -170 463q-154 150 -393 150q-262 0 -482 -113l-16 117q207 113 498 113q319 0 499 -179q199 -199 199 -596 q0 -377 -80 -544q-84 -178 -276 -179q-205 0 -242 187h-2q-92 -186 -301 -187q-342 0 -342 486zM305 401q0 -141 63.5 -224t168.5 -83q96 0 164.5 82t68.5 191v188q0 121 -68.5 203t-156.5 82q-121 0 -180.5 -89t-59.5 -233v-117z" />
<glyph unicode="A" horiz-adv-x="1286" d="M78 0l485 1366h139l486 -1366h-141l-125 365h-586l-125 -365h-133zM377 487h504l-250 738h-2z" />
<glyph unicode="B" horiz-adv-x="1107" d="M172 0v1366h369q409 0 409 -324q0 -242 -239 -313v-2q280 -52 280 -326q0 -401 -463 -401h-356zM305 121h213q334 0 334 268q0 266 -336 266h-211v-534zM305 776h203q303 0 303 250q0 219 -281 219h-225v-469z" />
<glyph unicode="C" horiz-adv-x="995" d="M98 680q0 317 92 483q125 225 433 226q143 0 290 -68l-8 -131q-147 72 -272 72q-395 0 -395 -471v-216q0 -471 395 -471q119 0 289 101l8 -137q-150 -90 -334 -91q-295 0 -412 216q-86 160 -86 487z" />
<glyph unicode="D" horiz-adv-x="1230" d="M172 0v1366h377q334 0 461 -178q102 -148 102 -496q0 -360 -127 -514q-147 -178 -514 -178h-299zM305 121h152q270 0 391 107.5t121 371.5v174q0 471 -426 471h-238v-1124z" />
<glyph unicode="E" horiz-adv-x="980" d="M172 0v1366h686v-119l-553 -2v-473h508v-121h-508v-530l553 -2v-119h-686z" />
<glyph unicode="F" horiz-adv-x="927" d="M172 0v1366h651v-119l-518 -2v-522h481v-121h-481v-602h-133z" />
<glyph unicode="G" horiz-adv-x="1191" d="M119 680q0 317 92 481q129 227 457 228q168 0 342 -78l-9 -133q-172 84 -327 84q-416 0 -416 -476v-215q0 -467 365 -467q150 0 282 66v418h-260v127h393v-619q-186 -119 -428 -119q-297 0 -409 216q-82 158 -82 487z" />
<glyph unicode="H" horiz-adv-x="1257" d="M172 0v1366h133v-594h645v594h133v-1366h-133v651h-645v-651h-133z" />
<glyph unicode="I" horiz-adv-x="479" d="M172 0v1366h133v-1366h-133z" />
<glyph unicode="J" horiz-adv-x="686" d="M41 -2l8 121q74 -20 137 -21q201 0 201 273v995h133v-1040q0 -348 -323 -349q-78 0 -156 21z" />
<glyph unicode="K" horiz-adv-x="1099" d="M172 0v1366h133v-631h2l537 631h172l-567 -659q118 -140 628 -707h-186q-240 262 -584 672h-2v-672h-133z" />
<glyph unicode="L" horiz-adv-x="935" d="M172 0v1366h133v-1239l553 -2v-125h-686z" />
<glyph unicode="M" horiz-adv-x="1560" d="M152 0l73 1366h152l401 -743h2l404 743h151l74 -1366h-129l-53 1196h-2l-445 -831l-444 831h-2l-53 -1196h-129z" />
<glyph unicode="N" horiz-adv-x="1261" d="M172 0v1366h141l648 -1137h2l-5 1137h132v-1366h-142l-645 1137h-2l4 -1137h-133z" />
<glyph unicode="O" horiz-adv-x="1232" d="M98 684q0 340 101 504q123 201 426 201q301 0 417 -201q91 -160 91 -504q0 -342 -99 -504q-125 -203 -426 -203t-418 203q-92 158 -92 504zM238 575q0 -471 374 -471q381 0 381 471v216q0 471 -372 471q-383 0 -383 -471v-216z" />
<glyph unicode="P" horiz-adv-x="1067" d="M172 0v1366h365q446 0 446 -395q0 -424 -479 -424h-199v-547h-133zM305 668h187q197 0 280 80q72 68 72 213q0 284 -316 284h-2h-221v-577z" />
<glyph unicode="Q" horiz-adv-x="1232" d="M98 684q0 340 101 504q123 201 426 201q301 0 417 -201q91 -160 91 -504q0 -317 -84 -479q-104 -197 -357 -223q-16 -70 -16 -125q0 -145 174 -146q33 0 49 2l6 -96q-29 -4 -78 -4q-274 0 -274 233q0 53 18 131q-279 12 -387 213q-86 158 -86 494zM236 575 q0 -473 376 -473q383 0 383 473v213q0 473 -374 474q-385 0 -385 -474v-213z" />
<glyph unicode="R" horiz-adv-x="1132" d="M172 0v1366h395q426 0 426 -379q0 -281 -286 -348v-2q23 -6 43 -19q49 -31 77 -96l228 -522h-156l-178 444q-55 139 -184 140h-232v-584h-133zM305 705h217q332 0 332 274q0 266 -297 266h-252v-540z" />
<glyph unicode="S" horiz-adv-x="1026" d="M115 55l8 140q168 -90 332 -91q158 0 241.5 70t83.5 180q0 178 -280 277l-47 16q-158 55 -234 133q-94 98 -94 258q0 164 115.5 257.5t314.5 93.5q170 0 303 -64l-8 -137q-158 74 -287 74q-299 0 -299 -224q0 -98 72 -161q57 -51 194 -103l50 -18q340 -128 340 -402 q0 -168 -117 -270q-125 -106 -340 -107q-205 0 -348 78z" />
<glyph unicode="T" horiz-adv-x="1015" d="M51 1245v121h914v-121h-390v-1245h-133v1245h-391z" />
<glyph unicode="U" horiz-adv-x="1249" d="M172 449v917h133v-917q0 -350 320 -351q319 0 319 351v917h133v-917q0 -248 -114.5 -360t-341.5 -112q-233 0 -341 113t-108 359z" />
<glyph unicode="V" d="M55 1366h142l395 -1225h2l397 1225h133l-465 -1366h-139z" />
<glyph unicode="W" horiz-adv-x="1808" d="M76 1366h129l297 -1229h2l313 1229h170l301 -1229h4l316 1229h125l-369 -1366h-156l-307 1229h-4l-319 -1229h-156z" />
<glyph unicode="X" horiz-adv-x="1181" d="M45 0l457 707l-432 659h166l356 -559h2l352 559h162l-430 -666l459 -700h-168l-381 600h-2l-379 -600h-162z" />
<glyph unicode="Y" horiz-adv-x="1126" d="M37 1366h153l375 -766h2l373 766h147l-458 -885v-481h-133v481z" />
<glyph unicode="Z" horiz-adv-x="1034" d="M31 0l714 1245l-636 2v119h854l-715 -1245l694 -2v-119h-911z" />
<glyph unicode="[" horiz-adv-x="837" d="M287 -272v1800h346v-121h-213v-1559h213v-120h-346z" />
<glyph unicode="\" horiz-adv-x="935" d="M102 1473h123l580 -1702h-121z" />
<glyph unicode="]" horiz-adv-x="837" d="M205 -152h215v1559h-215v121h346v-1800h-346v120z" />
<glyph unicode="^" horiz-adv-x="1245" d="M80 319l555 1014l555 -1014h-123l-432 791l-432 -791h-123z" />
<glyph unicode="_" horiz-adv-x="1114" d="M0 -100h1114v-115h-1114v115z" />
<glyph unicode="`" horiz-adv-x="737" d="M229 1450h138l139 -309h-109z" />
<glyph unicode="a" horiz-adv-x="1095" d="M106 504q0 238 89 379q104 164 313 164q201 0 299 -177l8 154h123q-8 -119 -8 -293v-450q0 -146 8 -281h-123l-8 158h-2q-113 -180 -313 -181q-203 0 -299 156q-86 135 -87 371zM244 440q0 -158 75.5 -251t202.5 -93q115 0 197 92t82 213v207q0 135 -82 227.5t-189 92.5 q-143 0 -219 -105q-68 -96 -67 -254v-129z" />
<glyph unicode="b" horiz-adv-x="1107" d="M168 0q8 96 8 295v1149h131v-570h2q59 82 115 119q82 53 205 54q377 -1 377 -527q0 -240 -86 -379q-100 -164 -312 -164q-209 0 -307 177h-2l-8 -154h-123zM307 416q0 -135 86 -227.5t197 -92.5q141 0 215 107q65 94 65 252v129q0 158 -75.5 251t-200.5 93 q-117 0 -202 -92.5t-85 -212.5v-207z" />
<glyph unicode="c" horiz-adv-x="843" d="M100 510q0 537 402 537q127 0 239 -62l-8 -119q-133 63 -235 64q-115 0 -187.5 -93.5t-72.5 -258.5v-136q0 -164 79 -260q74 -88 185 -88q125 0 237 68l9 -119q-106 -66 -265 -66q-383 0 -383 533z" />
<glyph unicode="d" horiz-adv-x="1107" d="M106 504q0 240 87 379q100 164 311 164q201 0 301 -164h2v561h129v-1163q0 -172 8 -281h-127l-10 152h-2q-117 -174 -318 -175q-381 0 -381 527zM244 440q0 -158 74.5 -251t201.5 -93q115 0 201 93t86 212v207q0 135 -86 227.5t-193 92.5q-143 0 -217 -105 q-68 -96 -67 -254v-129z" />
<glyph unicode="e" horiz-adv-x="997" d="M100 512q0 244 105 385q111 150 323 150q373 0 373 -451q0 -16 -4 -113h-659v-49q0 -147 67 -235q78 -104 236 -105q160 0 303 80l8 -119q-125 -78 -324 -78q-240 0 -342 154q-86 127 -86 381zM238 592h532q0 344 -244 344q-141 0 -221 -109q-68 -94 -67 -235z" />
<glyph unicode="f" horiz-adv-x="696" d="M16 909v115h248v143q0 139 68.5 219t202.5 80q53 0 124 -12l-8 -113q-49 10 -102 11q-154 0 -154 -195v-133h287v-115h-287v-909h-131v909h-248z" />
<glyph unicode="g" horiz-adv-x="1097" d="M106 516q0 233 87 371q100 160 311 160t307 -170h2l8 147h123q-8 -117 -8 -287v-723q0 -225 -127 -348q-121 -115 -328 -115q-168 0 -303 78l8 129q143 -90 289 -90q332 0 332 346v156h-2q-61 -82 -115 -117q-84 -53 -207 -53q-377 0 -377 516zM244 455q0 -152 74.5 -243 t201.5 -91q117 0 202 90t85 207v198q0 131 -87 221.5t-196 90.5q-143 0 -215 -103q-66 -92 -65 -247v-123z" />
<glyph unicode="h" horiz-adv-x="1095" d="M160 0v1444h131v-567h2q131 170 323 170q324 0 324 -345v-702h-131v666q0 260 -225 260q-115 0 -204 -82t-89 -182v-662h-131z" />
<glyph unicode="i" horiz-adv-x="475" d="M-2 1323q0 41 28.5 69.5t69.5 28.5t71 -28.5t30 -69.5t-30 -70.5t-71 -29.5t-69.5 29.5t-28.5 70.5zM176 0v1024h129v-1024h-129z" />
<glyph unicode="j" horiz-adv-x="495" d="M-49 -430l8 113q41 -10 92 -11q145 0 146 195v1157h129v-1157q0 -309 -260 -309q-51 0 -115 12zM-2 1323q0 41 28.5 69.5t69.5 28.5t71 -28.5t30 -69.5t-30 -70.5t-71 -29.5t-69.5 29.5t-28.5 70.5z" />
<glyph unicode="k" horiz-adv-x="997" d="M160 0v1444h131v-877h2l430 457h178l-455 -465q96 -100 547 -559h-186q-264 268 -514 537h-2v-537h-131z" />
<glyph unicode="l" horiz-adv-x="460" d="M168 0v1444h131v-1444h-131z" />
<glyph unicode="m" horiz-adv-x="1665" d="M162 0v1024h129v-152h2q119 174 303 175q217 0 283 -189q135 188 323 189q307 0 307 -345v-702h-129v666q0 260 -209 260q-104 0 -187 -82t-83 -182v-662h-131v666q0 260 -205 260q-104 0 -188 -82t-84 -182v-662h-131z" />
<glyph unicode="n" horiz-adv-x="1099" d="M164 0v1024h129v-152h2q129 174 326 175q324 0 323 -345v-702h-131v666q0 260 -225 260q-115 0 -204 -82t-89 -182v-662h-131z" />
<glyph unicode="o" horiz-adv-x="1062" d="M106 508q0 539 429 539q419 -1 419 -531q0 -539 -428 -539q-420 0 -420 531zM244 440q0 -166 74.5 -257t209.5 -91q137 0 214 95.5t77 261.5v135q0 166 -74.5 257t-212.5 91q-135 0 -211.5 -95.5t-76.5 -261.5v-135z" />
<glyph unicode="p" horiz-adv-x="1091" d="M156 -420v1444h125v-158h2q117 180 321 181q381 -1 381 -527q0 -240 -86 -379q-100 -164 -311 -164q-205 0 -299 164h-2v-561h-131zM287 416q0 -135 86 -227.5t192 -92.5q141 0 217 107q68 94 68 252v129q0 158 -76 251t-201 93q-115 0 -200.5 -93.5t-85.5 -211.5v-207z " />
<glyph unicode="q" horiz-adv-x="1101" d="M106 504q0 240 87 379q100 164 311 164q209 0 307 -177h2l8 154h123q-8 -94 -8 -295v-1149h-129v570h-2q-61 -82 -115 -119q-84 -53 -207 -54q-377 0 -377 527zM244 440q0 -158 74.5 -251t201.5 -93q117 0 202 92t85 213v207q0 135 -87 227.5t-196 92.5q-143 0 -215 -105 q-66 -94 -65 -254v-129z" />
<glyph unicode="r" horiz-adv-x="698" d="M160 0v1024h127v-168h2q102 190 311 191q16 -1 41 -3l-8 -131q-31 6 -58 7q-123 0 -203.5 -89.5t-80.5 -191.5v-639h-131z" />
<glyph unicode="s" horiz-adv-x="868" d="M111 49l8 121q137 -80 270 -80q242 0 242 174q0 74 -60 123q-41 33 -155 80l-66 27q-237 96 -237 282q0 119 80 191q92 80 264 80q147 0 256 -66l-8 -123q-125 76 -248 76q-209 0 -209 -146q0 -68 51 -112q45 -37 160 -84l65 -27q119 -49 174 -106q66 -70 66 -183 q0 -139 -94.5 -219t-280.5 -80q-152 0 -278 72z" />
<glyph unicode="t" horiz-adv-x="751" d="M16 909v115h248l2 266l131 21l-2 -287h287v-115h-287l-2 -676q0 -145 127 -145q63 0 154 37l8 -107q-98 -43 -188 -43q-231 0 -232 250l2 684h-248z" />
<glyph unicode="u" horiz-adv-x="1116" d="M164 397v627h131v-627q0 -303 266 -303q147 0 209 82q53 72 53 221v627h129v-627q0 -422 -395 -422q-213 0 -309 115q-84 100 -84 307z" />
<glyph unicode="v" horiz-adv-x="1013" d="M61 1024h136l313 -905h2l315 905h125l-372 -1024h-146z" />
<glyph unicode="w" horiz-adv-x="1484" d="M61 1024h136l221 -885h2l244 885h161l244 -885h2l221 885h127l-280 -1024h-146l-250 885h-2l-252 -885h-147z" />
<glyph unicode="x" horiz-adv-x="980" d="M37 0l373 532l-349 492h160l266 -397h2l273 397h156l-347 -498l371 -526h-160l-290 432h-3l-296 -432h-156z" />
<glyph unicode="y" horiz-adv-x="1032" d="M53 1024h144l323 -885h2l326 885h137q-92 -254 -184 -492q-219 -567 -391 -952h-150q96 186 197 420z" />
<glyph unicode="z" horiz-adv-x="954" d="M72 0l577 909l-506 2v113h717l-573 -909l563 -2v-113h-778z" />
<glyph unicode="{" horiz-adv-x="821" d="M141 571v113q193 43 187 215l-11 256q-14 373 308 373h14v-115h-12q-92 0 -133 -41q-53 -51 -50 -180l9 -283q6 -225 -177 -280v-2q182 -55 177 -281l-9 -283q-4 -129 48 -180q41 -41 135 -41h12v-114h-14q-322 0 -308 372l11 256q6 172 -187 215z" />
<glyph unicode="|" horiz-adv-x="608" d="M246 -420v1864h116v-1864h-116z" />
<glyph unicode="}" horiz-adv-x="821" d="M182 -158h13q92 0 133 41q53 51 49 180l-8 283q-6 225 176 281v2q-182 55 -176 280l8 283q4 129 -47 180q-41 41 -135 41h-13v115h15q322 0 307 -373l-10 -256q-6 -172 186 -215v-113q-193 -43 -186 -215l10 -256q14 -373 -307 -372h-15v114z" />
<glyph unicode="~" horiz-adv-x="1245" d="M135 676q123 94 252 94q92 0 241.5 -56.5t227.5 -56.5q125 0 246 97l8 -119q-125 -94 -252 -94q-90 0 -240.5 56t-230.5 56q-125 0 -244 -96z" />
<glyph unicode="&#xa1;" horiz-adv-x="450" d="M123 1284q0 45 29.5 75t74.5 30t74 -30t29 -75q0 -43 -29 -72.5t-74 -29.5t-74.5 29.5t-29.5 72.5zM158 0l6 899h123l8 -899h-137z" />
<glyph unicode="&#xa2;" d="M246 682q0 487 334 532v152h98v-149q113 -6 207 -60l-8 -119q-127 63 -236 64q-115 0 -187.5 -93.5t-72.5 -258.5v-136q0 -164 82 -260q74 -90 184 -90q121 0 238 68l8 -119q-94 -55 -215 -63v-150h-98v150q-334 33 -334 532z" />
<glyph unicode="&#xa3;" d="M227 668l9 112h180l-17 205q-2 27 -2 51q0 172 97 264q90 88 241 89q106 0 205 -41l-8 -127q-100 45 -199 45q-225 0 -203 -281l17 -205h401l-8 -112h-385l18 -203q2 -25 2 -49q0 -221 -176 -295v-2h549v-119h-717v137q229 72 211 307l-18 224h-197z" />
<glyph unicode="&#xa5;" d="M145 1366h138l309 -698h2l307 698h133l-329 -696h309l-8 -113h-351v-195h359l-8 -112h-351v-250h-131v250h-358l8 112h350v195h-358l8 113h301z" />
<glyph unicode="&#xa7;" horiz-adv-x="976" d="M123 588q0 201 203 286v3q-141 94 -142 266q0 139 101 225q94 82 239 82q117 0 238 -49l-6 -125q-121 55 -221 55q-221 0 -222 -178q0 -84 60 -139q43 -43 151 -90l66 -29q135 -59 190 -117q74 -80 74 -217q0 -225 -203 -311v-2q141 -88 142 -250q0 -160 -97.5 -247 t-255.5 -87q-145 0 -264 55l6 131q135 -70 271 -69q94 0 152.5 52t58.5 140q0 152 -240 254l-57 25q-244 104 -244 336zM250 598q0 -88 49 -143q43 -45 147 -93l107 -47q172 56 172 234q0 145 -176 221l-115 49q-184 -55 -184 -221z" />
<glyph unicode="&#xa8;" horiz-adv-x="737" d="M41 1296q0 41 28.5 69t69.5 28t69 -28t28 -69t-28 -69.5t-69 -28.5t-69.5 28.5t-28.5 69.5zM500 1296q0 39 28.5 68t69.5 29t69.5 -29t28.5 -68q0 -41 -28.5 -69.5t-69.5 -28.5t-69.5 28.5t-28.5 69.5z" />
<glyph unicode="&#xa9;" horiz-adv-x="1646" d="M102 684q0 315 211 520q205 199 510 199t513 -203t208 -518t-208 -517t-513 -202t-510 201q-211 205 -211 520zM201 684q0 -272 180 -450.5t444 -178.5q262 0 441.5 178.5t179.5 450.5t-180.5 450.5t-442.5 178.5q-264 0 -443 -177.5t-179 -451.5zM555 682q0 352 295 352 q84 0 158 -37l-7 -90q-78 39 -145 39q-197 0 -197 -215v-96q0 -215 195 -215q66 0 154 51l6 -92q-78 -47 -187 -47q-272 0 -272 350z" />
<glyph unicode="&#xaa;" horiz-adv-x="768" d="M78 772q0 156 59 250q72 113 219 113q131 0 191 -105h2l4 90h104q-6 -88 -6 -200v-293q0 -95 6 -195h-104l-6 94h-2q-61 -109 -199 -108q-268 0 -268 354zM98 0v98h559v-98h-559zM190 729q0 -98 48.5 -155.5t128.5 -57.5q72 0 124 56.5t52 132.5v133q0 86 -52.5 142 t-117.5 56q-182 0 -183 -223v-84z" />
<glyph unicode="&#xab;" horiz-adv-x="1191" d="M102 551l322 473h141l-321 -473l321 -473h-141zM629 551l319 473h142l-320 -473l320 -473h-142z" />
<glyph unicode="&#xac;" horiz-adv-x="1245" d="M131 711v108h983v-504h-117v396h-866z" />
<glyph unicode="&#xad;" horiz-adv-x="731" d="M102 518v113h527v-113h-527z" />
<glyph unicode="&#xae;" horiz-adv-x="1312" d="M72 834q0 250 168 409.5t415 159.5q248 0 416 -161t168 -413q0 -248 -168 -407.5t-416 -159.5t-415.5 161t-167.5 411zM164 834q0 -213 142.5 -351.5t348.5 -138.5q209 0 350.5 138.5t141.5 351.5q0 211 -142.5 349t-349.5 138q-209 0 -350 -138.5t-141 -348.5zM489 561 v539h173q190 0 190 -156q0 -94 -111 -131q14 -6 39 -43l76 -209h-94l-57 172q-16 47 -64 47h-68v-219h-84zM573 852h68q125 0 125 90q0 86 -109 86h-84v-176z" />
<glyph unicode="&#xb0;" horiz-adv-x="862" d="M94 1053q0 139 99.5 237.5t238.5 98.5t237.5 -98.5t98.5 -237.5t-98.5 -237.5t-237.5 -98.5t-238.5 98t-99.5 238zM219 1053q0 -90 61.5 -153.5t151.5 -63.5q88 0 150.5 63.5t62.5 153.5t-62.5 153.5t-150.5 63.5q-90 0 -151.5 -63.5t-61.5 -153.5z" />
<glyph unicode="&#xb1;" horiz-adv-x="1245" d="M131 25v108h983v-108h-983zM131 602v109h434v393h115v-393h434v-109h-434v-395h-115v395h-434z" />
<glyph unicode="&#xb4;" horiz-adv-x="737" d="M229 1141l140 309h137l-168 -309h-109z" />
<glyph unicode="&#xb6;" horiz-adv-x="1302" d="M113 901q0 207 155 340q145 125 350 125h125v-1366h-125v428q-211 0 -354 123q-152 131 -151 350zM952 0v1366h125v-1366h-125z" />
<glyph unicode="&#xb7;" horiz-adv-x="452" d="M117 578q0 45 32.5 76.5t77.5 31.5t77 -31.5t32 -76.5t-32 -78t-77 -33t-77.5 32.5t-32.5 78.5z" />
<glyph unicode="&#xb8;" horiz-adv-x="737" d="M197 -465l4 90q41 -4 53 -4q174 0 174 150q0 51 -16 123h108q19 -67 19 -130q0 -233 -271 -233q-18 0 -71 4z" />
<glyph unicode="&#xba;" horiz-adv-x="765" d="M88 774q0 360 297 361q293 -1 293 -357q0 -360 -297 -360q-293 0 -293 356zM109 0v98h548v-98h-548zM201 729q0 -215 180 -215q86 0 135 58.5t49 162.5v88q0 215 -180 215q-86 0 -135 -58t-49 -163v-88z" />
<glyph unicode="&#xbb;" horiz-adv-x="1191" d="M102 78l322 473l-322 473h142l321 -473l-321 -473h-142zM629 78l319 473l-319 473h141l320 -473l-320 -473h-141z" />
<glyph unicode="&#xbf;" horiz-adv-x="886" d="M131 283q0 145 158 303l24 24q72 72 95.5 131.5t21.5 157.5h129q12 -207 -129 -348l-24 -25q-135 -135 -136 -235q0 -86 58.5 -135.5t152.5 -49.5q141 0 248 70l8 -133q-100 -63 -262 -63q-145 0 -239 75q-104 82 -105 228zM395 1286q0 45 30 74t75 29t73.5 -29t28.5 -74 q0 -43 -28.5 -72.5t-73.5 -29.5t-75 29.5t-30 72.5z" />
<glyph unicode="&#xc2;" horiz-adv-x="1286" d="M78 0l485 1366h139l486 -1366h-141l-125 365h-586l-125 -365h-133zM328 1468l245 310h121l246 -310h-125l-180 218l-182 -218h-125zM377 487h504l-250 738h-2z" />
<glyph unicode="&#xc7;" horiz-adv-x="995" d="M98 680q0 317 92 483q125 225 433 226q143 0 290 -68l-8 -131q-147 72 -272 72q-395 0 -395 -471v-216q0 -471 395 -471q119 0 289 101l8 -137q-106 -66 -232 -82v-439h-129v430q-279 10 -389 224q-82 160 -82 479zM575 -106zM702 -236z" />
<glyph unicode="&#xce;" horiz-adv-x="479" d="M-66 1468l246 310h121l246 -310h-125l-182 218l-181 -218h-125zM172 0v1366h133v-1366h-133z" />
<glyph unicode="&#xd6;" horiz-adv-x="1232" d="M0 1624q0 41 28.5 68.5t69.5 27.5t69 -27.5t28 -68.5t-28 -69.5t-69 -28.5t-69.5 28.5t-28.5 69.5zM98 684q0 340 101 504q123 201 426 201q301 0 417 -201q91 -160 91 -504q0 -342 -99 -504q-125 -203 -426 -203t-418 203q-92 158 -92 504zM238 575q0 -471 374 -471 q381 0 381 471v216q0 471 -372 471q-383 0 -383 -471v-216zM459 1624q0 39 28.5 67.5t69.5 28.5t69.5 -28.5t28.5 -67.5q0 -41 -28.5 -69.5t-69.5 -28.5t-69.5 28.5t-28.5 69.5z" />
<glyph unicode="&#xdb;" horiz-adv-x="1249" d="M172 449v917h133v-917q0 -350 320 -351q319 0 319 351v917h133v-917q0 -248 -114.5 -360t-341.5 -112q-233 0 -341 113t-108 359zM330 1468l245 310h121l246 -310h-125l-180 218l-182 -218h-125z" />
<glyph unicode="&#xdc;" horiz-adv-x="1249" d="M4 1624q0 41 28.5 68.5t69.5 27.5t69 -27.5t28 -68.5t-28 -69.5t-69 -28.5t-69.5 28.5t-28.5 69.5zM172 449v917h133v-917q0 -350 320 -351q319 0 319 351v917h133v-917q0 -248 -114.5 -360t-341.5 -112q-233 0 -341 113t-108 359zM463 1624q0 41 28.5 68.5t69.5 27.5 t69.5 -28.5t28.5 -67.5q0 -41 -28.5 -69.5t-69.5 -28.5t-69.5 28.5t-28.5 69.5z" />
<glyph unicode="&#xe2;" horiz-adv-x="1095" d="M106 504q0 238 89 379q104 164 313 164q201 0 299 -177l8 154h123q-8 -119 -8 -293v-450q0 -146 8 -281h-123l-8 158h-2q-113 -180 -313 -181q-203 0 -299 156q-86 135 -87 371zM225 1161l246 309h121l246 -309h-125l-181 217l-182 -217h-125zM244 440q0 -158 75.5 -251 t202.5 -93q115 0 197 92t82 213v207q0 135 -82 227.5t-189 92.5q-143 0 -219 -105q-68 -96 -67 -254v-129z" />
<glyph unicode="&#xe7;" horiz-adv-x="843" d="M100 510q0 537 402 537q127 0 239 -62l-8 -119q-133 63 -235 64q-115 0 -187.5 -93.5t-72.5 -258.5v-136q0 -164 79 -260q74 -88 185 -88q125 0 237 68l9 -119q-72 -45 -160 -57v-445h-129v436q-358 16 -359 533z" />
<glyph unicode="&#xee;" horiz-adv-x="475" d="M-66 1161l246 309h121l246 -309h-125l-180 217l-183 -217h-125zM176 0v1024h129v-1024h-129z" />
<glyph unicode="&#xf6;" horiz-adv-x="1062" d="M-8 1337q0 41 28.5 70t69.5 29q39 0 67.5 -29t28.5 -70t-28.5 -69.5t-67.5 -28.5q-41 0 -69.5 28.5t-28.5 69.5zM106 508q0 539 429 539q419 -1 419 -531q0 -539 -428 -539q-420 0 -420 531zM244 440q0 -166 74.5 -257t209.5 -91q137 0 214 95.5t77 261.5v135 q0 166 -74.5 257t-212.5 91q-135 0 -211.5 -95.5t-76.5 -261.5v-135zM451 1337q0 41 28.5 70t69.5 29t69.5 -29t28.5 -70q0 -39 -28.5 -68.5t-69.5 -29.5t-69.5 28.5t-28.5 69.5z" />
<glyph unicode="&#xf7;" horiz-adv-x="1245" d="M131 602v109h983v-109h-983zM532 215q0 37 27 62.5t64 25.5t63.5 -25.5t26.5 -62.5t-27 -63.5t-63 -26.5q-37 0 -64 26.5t-27 63.5zM532 1098q0 37 27 62.5t64 25.5t63.5 -25.5t26.5 -62.5t-27 -63.5t-63 -26.5q-37 0 -64 26.5t-27 63.5z" />
<glyph unicode="&#xfb;" horiz-adv-x="1116" d="M164 397v627h131v-627q0 -303 266 -303q147 0 209 82q53 72 53 221v627h129v-627q0 -422 -395 -422q-213 0 -309 115q-84 100 -84 307zM246 1161l246 309h120l246 -309h-125l-180 217l-182 -217h-125z" />
<glyph unicode="&#xfc;" horiz-adv-x="1116" d="M6 1337q0 41 28.5 70t69.5 29q39 0 68 -29t29 -70t-29 -69.5t-68 -28.5q-41 0 -69.5 28.5t-28.5 69.5zM164 397v627h131v-627q0 -303 266 -303q147 0 209 82q53 72 53 221v627h129v-627q0 -422 -395 -422q-213 0 -309 115q-84 100 -84 307zM465 1337q0 41 28.5 70 t69.5 29t70 -29t29 -70q0 -39 -29 -68.5t-70 -29.5t-69.5 28.5t-28.5 69.5z" />
<glyph unicode="&#x11e;" horiz-adv-x="1191" d="M119 680q0 295 80 455q109 221 383 249v205h129v-200q141 -8 299 -78l-9 -133q-172 84 -327 84q-416 0 -416 -476v-215q0 -467 365 -467q150 0 282 66v418h-260v127h393v-619q-186 -119 -428 -119q-297 0 -409 216q-82 158 -82 487z" />
<glyph unicode="&#x11f;" horiz-adv-x="1097" d="M106 516q1 497 355 528v320h129v-326q147 -31 221 -161h2l8 147h123q-8 -117 -8 -287v-723q0 -225 -127 -348q-121 -115 -328 -115q-168 0 -303 78l8 129q143 -90 289 -90q332 0 332 346v156h-2q-61 -82 -115 -117q-84 -53 -207 -53q-377 0 -377 516zM244 455 q0 -152 74.5 -243t201.5 -91q117 0 202 90t85 207v198q0 131 -87 221.5t-196 90.5q-143 0 -215 -103q-66 -92 -65 -247v-123z" />
<glyph unicode="&#x130;" horiz-adv-x="479" d="M10 1624q0 41 29 68.5t67 27.5q41 0 70 -27.5t29 -68.5t-29 -69.5t-70 -28.5t-68.5 28.5t-27.5 69.5zM172 0v1366h133v-1366h-133z" />
<glyph unicode="&#x131;" horiz-adv-x="475" d="M176 0v1024h129v-1024h-129z" />
<glyph unicode="&#x15e;" horiz-adv-x="1026" d="M115 55l8 140q168 -90 332 -91q158 0 241.5 70t83.5 180q0 178 -280 277l-47 16q-158 55 -234 133q-94 98 -94 258q0 164 115.5 257.5t314.5 93.5q170 0 303 -64l-8 -137q-158 74 -287 74q-299 0 -299 -224q0 -98 72 -161q57 -51 194 -103l50 -18q340 -127 340 -402 q0 -150 -97.5 -251t-275.5 -121v-441h-129v439q-180 8 -303 75z" />
<glyph unicode="&#x15f;" horiz-adv-x="868" d="M111 49l8 121q137 -80 270 -80q242 0 242 174q0 74 -60 123q-41 33 -155 80l-66 27q-238 96 -237 284q0 117 80 189q92 80 264 80q147 0 256 -66l-8 -123q-125 76 -248 76q-209 0 -209 -146q0 -68 51 -112q45 -37 160 -84l65 -27q119 -49 174 -106q66 -70 66 -183 q0 -241 -258 -288v-447h-129v436q-143 2 -266 72z" />
<glyph unicode="&#x192;" d="M272 627l9 112h245v353q0 297 258 297q49 0 113 -13l-6 -108q-41 10 -94 10q-143 0 -144 -197v-342h252l-8 -112h-244v-353q0 -297 -260 -297q-49 0 -112 11l8 110q41 -10 92 -10q145 0 145 195v344h-254z" />
<glyph unicode="&#x2c6;" horiz-adv-x="737" d="M61 1141l248 309h119l246 -309h-125l-180 217l-183 -217h-125z" />
<glyph unicode="&#x2da;" horiz-adv-x="737" d="M166 1333q0 82 58.5 138.5t144.5 56.5t144 -56.5t58 -138.5q0 -80 -58 -137t-144 -57t-144.5 57t-58.5 137zM254 1333q0 -49 32.5 -82.5t82.5 -33.5q47 0 80.5 34.5t33.5 81.5q0 49 -33.5 83t-80.5 34q-49 0 -82 -34t-33 -83z" />
<glyph unicode="&#x2dc;" horiz-adv-x="737" d="M51 1237q0 213 174 213q59 0 156.5 -53.5t130.5 -53.5q78 0 78 107h94q0 -213 -174 -213q-57 0 -154.5 53t-132.5 53q-80 0 -76 -106h-96z" />
<glyph unicode="&#x2000;" horiz-adv-x="889" />
<glyph unicode="&#x2001;" horiz-adv-x="1778" />
<glyph unicode="&#x2002;" horiz-adv-x="889" />
<glyph unicode="&#x2003;" horiz-adv-x="1778" />
<glyph unicode="&#x2004;" horiz-adv-x="592" />
<glyph unicode="&#x2005;" horiz-adv-x="444" />
<glyph unicode="&#x2006;" horiz-adv-x="296" />
<glyph unicode="&#x2007;" horiz-adv-x="296" />
<glyph unicode="&#x2008;" horiz-adv-x="222" />
<glyph unicode="&#x2009;" horiz-adv-x="355" />
<glyph unicode="&#x200a;" horiz-adv-x="98" />
<glyph unicode="&#x2010;" horiz-adv-x="731" d="M102 518v113h527v-113h-527z" />
<glyph unicode="&#x2011;" horiz-adv-x="731" d="M102 518v113h527v-113h-527z" />
<glyph unicode="&#x2012;" horiz-adv-x="731" d="M102 518v113h527v-113h-527z" />
<glyph unicode="&#x2013;" horiz-adv-x="1148" d="M61 516v117h1024v-117h-1024z" />
<glyph unicode="&#x2014;" horiz-adv-x="2172" d="M61 516v117h2048v-117h-2048z" />
<glyph unicode="&#x2018;" horiz-adv-x="475" d="M102 895l162 471h109l-123 -471h-148z" />
<glyph unicode="&#x2019;" horiz-adv-x="475" d="M102 895l123 471h148l-162 -471h-109z" />
<glyph unicode="&#x201a;" horiz-adv-x="475" d="M82 -256l123 471h147l-162 -471h-108z" />
<glyph unicode="&#x201c;" horiz-adv-x="915" d="M102 895l162 471h109l-123 -471h-148zM543 895l162 471h106l-121 -471h-147z" />
<glyph unicode="&#x201d;" horiz-adv-x="915" d="M102 895l123 471h148l-162 -471h-109zM543 895l123 471h145l-160 -471h-108z" />
<glyph unicode="&#x201e;" horiz-adv-x="931" d="M82 -256l123 471h147l-162 -471h-108zM522 -256l123 471h146l-160 -471h-109z" />
<glyph unicode="&#x2020;" horiz-adv-x="1064" d="M102 909v115h365v401h131v-401h365v-115h-365v-909h-131v909h-365z" />
<glyph unicode="&#x2021;" horiz-adv-x="1064" d="M102 401v115h365v393h-365v115h365v401h131v-401h365v-115h-365v-393h365v-115h-365v-401h-131v401h-365z" />
<glyph unicode="&#x2022;" horiz-adv-x="860" d="M123 696q0 131 88 218t219 87q133 0 220 -86t87 -219t-86 -218t-219 -85q-131 0 -220 86t-89 217z" />
<glyph unicode="&#x2026;" horiz-adv-x="1652" d="M156 86q0 47 32.5 79t77.5 32t77 -33t32 -78t-32 -77t-77 -32t-77.5 32t-32.5 77zM715 86q0 47 32.5 79t77.5 32t77 -33t32 -78t-32 -77t-77 -32t-77.5 32t-32.5 77zM1274 86q0 47 32.5 79t77.5 32t77 -33t32 -78t-31.5 -77t-77.5 -32q-45 0 -77.5 32t-32.5 77z" />
<glyph unicode="&#x202f;" horiz-adv-x="355" />
<glyph unicode="&#x2030;" horiz-adv-x="2301" d="M102 973q0 162 70 256q78 106 229 106q295 0 295 -362q0 -162 -69 -256q-76 -106 -230 -107q-152 0 -227 107q-68 94 -68 256zM223 938q0 -92 43 -154q47 -70 133 -69q179 0 179 221v72q0 92 -43 153q-47 70 -134 70q-178 0 -178 -221v-72zM358 0l740 1311h139 l-739 -1311h-140zM899 338q0 162 70 256q76 106 229 106q295 0 295 -360q0 -164 -70 -258q-76 -104 -229 -105q-295 0 -295 361zM1018 303q0 -92 43 -153q49 -70 135 -70q178 0 178 221v72q0 92 -43 153q-49 70 -135 70q-178 0 -178 -221v-72zM1604 338q0 162 69 256 q76 106 230 106q295 0 295 -360q0 -164 -70 -258q-76 -104 -230 -105q-295 0 -294 361zM1722 303q0 -92 43 -153q49 -70 136 -70q178 0 178 221v72q0 92 -43 153q-49 70 -135 70q-178 0 -179 -221v-72z" />
<glyph unicode="&#x2039;" horiz-adv-x="479" d="M10 1624q0 41 29 68.5t67 27.5q41 0 70 -27.5t29 -68.5t-29 -69.5t-70 -28.5t-68.5 28.5t-27.5 69.5zM172 0v1366h133v-1366h-133z" />
<glyph unicode="&#x203a;" horiz-adv-x="475" d="M176 0v1024h129v-1024h-129z" />
<glyph unicode="&#x2044;" horiz-adv-x="1191" d="M119 680q0 295 80 455q109 221 383 249v205h129v-200q141 -8 299 -78l-9 -133q-172 84 -327 84q-416 0 -416 -476v-215q0 -467 365 -467q150 0 282 66v418h-260v127h393v-619q-186 -119 -428 -119q-297 0 -409 216q-82 158 -82 487z" />
<glyph unicode="&#x205f;" horiz-adv-x="444" />
<glyph unicode="&#x20ac;" d="M117 436l8 115h168q-2 45 -2 131q0 84 4 133h-178l8 115h182q74 459 451 459q113 0 209 -33l-9 -127q-88 35 -192 35q-133 0 -221 -87t-113 -247h467l-8 -115h-467v-264h475l-8 -115h-461q45 -334 313 -334q125 0 236 58v-133q-104 -49 -270 -50q-344 0 -406 459h-186z " />
<glyph unicode="&#x2122;" horiz-adv-x="1423" d="M88 1280v86h453v-86h-179v-549h-96v549h-178zM623 733l36 633h97l186 -322h2l184 322h95l34 -633h-86l-22 508h-2l-205 -364l-207 364h-2l-24 -508h-86z" />
<glyph unicode="&#x2264;" horiz-adv-x="669" d="M102 551l322 473h143l-321 -473l321 -473h-143z" />
<glyph unicode="&#x2265;" horiz-adv-x="669" d="M102 78l322 473l-322 473h144l321 -473l-321 -473h-144z" />
<glyph unicode="&#x25ca;" horiz-adv-x="1191" />
<glyph unicode="&#xe000;" horiz-adv-x="1024" d="M0 0v1024h1024v-1024h-1024z" />
</font>
</defs>
</svg>
