<svg xmlns="http://www.w3.org/2000/svg" width="250" height="25" version="1.1" viewBox="0 0 250 25">
  <g fill="#000" fill-rule="evenodd" stroke="none" stroke-width="1">
    <path d="M16.793 23.452h-2.93c-.745 0-1.291-.497-1.64-1.093l-6.51-10.881c-.299-.498-.644-.498-.644 0v10.881c0 .696-.4 1.093-1.095 1.093H1.092C.4 23.452 0 23.055 0 22.36V1.591C0 .895.4.496 1.092.496h3.132c.696 0 1.092.497 1.44 1.095l6.51 10.732c.346.547.645.498.645 0V1.591c0-.696.397-1.095 1.093-1.095h2.881c.696 0 1.093.4 1.093 1.095V22.36c0 .696-.397 1.093-1.093 1.093M39.747 23.452h-15.7c-.696 0-1.093-.397-1.093-1.093v-2.286c0-.696.397-1.093 1.092-1.093h4.67c.348 0 .55-.198.55-.546V5.516c0-.35-.202-.546-.55-.546h-3.03c-.696 0-1.09-.4-1.09-1.095V1.59c0-.696.394-1.095 1.09-1.095h12.422c.696 0 1.093.4 1.093 1.095v2.284c0 .696-.397 1.095-1.093 1.095h-3.03c-.349 0-.547.196-.547.546v12.918c0 .348.198.546.546.546h4.67c.696 0 1.093.397 1.093 1.093v2.286c0 .696-.397 1.093-1.093 1.093M55.348 23.95c-5.366 0-8.943-3.877-8.943-8.3V8.297c0-4.423 3.577-8.296 8.943-8.296 4.423 0 7.204 2.533 8.15 4.969.147.348.296 1.093-.299 1.49L60.864 8c-.546.346-1.144.297-1.49-.25-.946-1.59-1.84-3.03-4.026-3.03-2.335 0-3.626 1.837-3.626 3.577v7.353c0 1.74 1.291 3.578 3.626 3.578 2.186 0 3.08-1.441 4.026-3.029.346-.549.944-.598 1.49-.25l2.335 1.541c.595.397.446 1.142.299 1.49-.946 2.436-3.727 4.97-8.15 4.97M78.202 23.95c-5.366 0-8.943-3.877-8.943-8.3V8.297c0-4.423 3.577-8.296 8.943-8.296 4.423 0 7.204 2.533 8.15 4.969.149.348.296 1.093-.3 1.49L83.719 8c-.547.346-1.142.297-1.49-.25-.946-1.59-1.838-3.03-4.026-3.03-2.335 0-3.626 1.837-3.626 3.577v.894c0 .348.198.547.546.547h4.869c.696 0 1.095.4 1.095 1.095v2.284c0 .696-.4 1.095-1.095 1.095h-4.869c-.348 0-.546.196-.546.547v.891c0 1.74 1.291 3.578 3.626 3.578 2.188 0 3.08-1.441 4.026-3.029.348-.549.943-.598 1.49-.25l2.335 1.541c.595.397.448 1.142.299 1.49-.946 2.436-3.727 4.97-8.15 4.97M121.254 4.97h-4.67c-.348 0-.547.198-.547.545v16.843c0 .696-.397 1.093-1.092 1.093h-3.083c-.693 0-1.09-.397-1.09-1.093V5.515c0-.347-.201-.546-.546-.546h-4.67c-.696 0-1.096-.397-1.096-1.093V1.59c0-.696.4-1.093 1.095-1.093h15.699c.696 0 1.093.397 1.093 1.093v2.286c0 .696-.397 1.093-1.093 1.093M139.985 8.298c0-1.74-1.291-3.578-3.63-3.578-2.332 0-3.625 1.838-3.625 3.578v7.353c0 1.74 1.293 3.577 3.626 3.577 2.338 0 3.629-1.838 3.629-3.577V8.298zm-3.63 15.652c-5.365 0-8.94-3.877-8.94-8.3V8.299c0-4.423 3.575-8.3 8.94-8.3 5.37 0 8.947 3.877 8.947 8.3v7.353c0 4.422-3.578 8.299-8.946 8.299zM179.807 23.452h-3.128c-.696 0-1.096-.397-1.096-1.093v-7.603c0-.348-.198-.544-.546-.544h-6.16c-.348 0-.546.196-.546.544v7.603c0 .696-.397 1.093-1.093 1.093h-3.132c-.695 0-1.092-.397-1.092-1.093V1.591c0-.696.397-1.095 1.092-1.095h3.132c.696 0 1.093.4 1.093 1.095v7.6c0 .349.198.547.546.547h6.16c.348 0 .546-.198.546-.546v-7.6c0-.697.4-1.096 1.096-1.096h3.128c.696 0 1.093.4 1.093 1.095V22.36c0 .696-.397 1.093-1.093 1.093M198.538 8.298c0-1.74-1.29-3.578-3.626-3.578-2.335 0-3.629 1.838-3.629 3.578v.894c0 .348.201.546.547.546h6.162c.348 0 .546-.198.546-.546v-.894zm4.225 15.154h-3.132c-.696 0-1.093-.397-1.093-1.092v-7.604c0-.347-.198-.546-.546-.546h-6.162c-.346 0-.547.199-.547.546v7.604c0 .695-.397 1.092-1.093 1.092h-3.128c-.696 0-1.093-.397-1.093-1.092V8.246c0-4.371 3.577-8.247 8.943-8.247s8.943 3.876 8.943 8.247V22.36c0 .695-.396 1.092-1.092 1.092zM220.45 21.663c-.398 1.242-1.194 2.286-2.586 2.286-1.389 0-2.185-1.044-2.582-2.286l-6.41-20.024c-.199-.546.247-1.141 1.044-1.141h3.129c.546 0 1.092.446 1.293 1.092l3.08 10.086c.15.448.248.695.446.695.199 0 .3-.247.449-.695l3.08-10.086c.198-.646.744-1.092 1.29-1.092h3.132c.794 0 1.242.595 1.044 1.141l-6.41 20.024zM241.218 23.95c-5.369 0-8.946-3.877-8.946-8.3V8.297c0-4.423 3.577-8.296 8.946-8.296 4.42 0 7.203 2.533 8.146 4.969.15.348.3 1.093-.299 1.49L246.73 8c-.546.346-1.141.297-1.49-.25-.943-1.59-1.837-3.03-4.022-3.03-2.338 0-3.63 1.837-3.63 3.577v.894c0 .348.2.547.547.547h4.871c.696 0 1.093.4 1.093 1.095v2.284c0 .696-.397 1.095-1.093 1.095h-4.87c-.349 0-.547.196-.547.547v.891c0 1.74 1.29 3.578 3.629 3.578 2.185 0 3.08-1.441 4.023-3.029.348-.549.943-.598 1.49-.25l2.334 1.541c.598.397.449 1.142.3 1.49-.944 2.436-3.727 4.97-8.147 4.97"/>
  </g>
</svg>